<svg xmlns="http://www.w3.org/2000/svg" version="1.1" xmlns:xlink="http://www.w3.org/1999/xlink" xmlns:svgjs="http://svgjs.dev/svgjs" viewBox="0 0 1422 800"><defs><radialGradient id="cccircular-grad" r="50%" cx="50%" cy="50%">
          <stop offset="50%" stop-color="#cad2c5" stop-opacity="0.5"></stop>
          <stop offset="100%" stop-color="#99a195" stop-opacity="0.5"></stop>
        </radialGradient></defs><g fill="url(#cccircular-grad)"><circle r="1344" cx="711" cy="400"></circle><circle r="1312" cx="711" cy="400"></circle><circle r="1280" cx="711" cy="400"></circle><circle r="1248" cx="711" cy="400"></circle><circle r="1216" cx="711" cy="400"></circle><circle r="1184" cx="711" cy="400"></circle><circle r="1152" cx="711" cy="400"></circle><circle r="1120" cx="711" cy="400"></circle><circle r="1088" cx="711" cy="400"></circle><circle r="1056" cx="711" cy="400"></circle><circle r="1024" cx="711" cy="400"></circle><circle r="992" cx="711" cy="400"></circle><circle r="960" cx="711" cy="400"></circle><circle r="928" cx="711" cy="400"></circle><circle r="896" cx="711" cy="400"></circle><circle r="864" cx="711" cy="400"></circle><circle r="832" cx="711" cy="400"></circle><circle r="800" cx="711" cy="400"></circle><circle r="768" cx="711" cy="400"></circle><circle r="736" cx="711" cy="400"></circle><circle r="704" cx="711" cy="400"></circle><circle r="672" cx="711" cy="400"></circle><circle r="640" cx="711" cy="400"></circle><circle r="608" cx="711" cy="400"></circle><circle r="576" cx="711" cy="400"></circle><circle r="544" cx="711" cy="400"></circle><circle r="512" cx="711" cy="400"></circle><circle r="480" cx="711" cy="400"></circle><circle r="448" cx="711" cy="400"></circle><circle r="416" cx="711" cy="400"></circle><circle r="384" cx="711" cy="400"></circle><circle r="352" cx="711" cy="400"></circle><circle r="320" cx="711" cy="400"></circle><circle r="288" cx="711" cy="400"></circle><circle r="256" cx="711" cy="400"></circle><circle r="224" cx="711" cy="400"></circle><circle r="192" cx="711" cy="400"></circle><circle r="160" cx="711" cy="400"></circle><circle r="128" cx="711" cy="400"></circle><circle r="96" cx="711" cy="400"></circle><circle r="64" cx="711" cy="400"></circle></g></svg>