<svg xmlns="http://www.w3.org/2000/svg" version="1.1" xmlns:xlink="http://www.w3.org/1999/xlink" xmlns:svgjs="http://svgjs.dev/svgjs" viewBox="0 0 800 800"><g transform="matrix(1,0,0,1,0,0)"><circle r="350" cx="800" cy="800" stroke-width="11.5" stroke="#2f3e46" fill="none" opacity="0.01" transform="rotate(100, 400, 400)"></circle><circle r="341.14285714285717" cx="792.4571428571429" cy="787.8857142857142" stroke-width="11.628571428571428" stroke="#3a474d" fill="none" opacity="0.038285714285714284" transform="rotate(97.14285714285714, 400, 400)"></circle><circle r="332.2857142857143" cx="784.9142857142857" cy="775.7714285714286" stroke-width="11.757142857142856" stroke="#424e53" fill="none" opacity="0.06657142857142857" transform="rotate(94.28571428571429, 400, 400)"></circle><circle r="323.42857142857144" cx="777.3714285714286" cy="763.6571428571428" stroke-width="11.885714285714286" stroke="#4a5558" fill="none" opacity="0.09485714285714285" transform="rotate(91.42857142857143, 400, 400)"></circle><circle r="314.57142857142856" cx="769.8285714285714" cy="751.5428571428572" stroke-width="12.014285714285714" stroke="#515c5e" fill="none" opacity="0.12314285714285714" transform="rotate(88.57142857142857, 400, 400)"></circle><circle r="305.7142857142857" cx="762.2857142857143" cy="739.4285714285714" stroke-width="12.142857142857142" stroke="#586263" fill="none" opacity="0.15142857142857144" transform="rotate(85.71428571428571, 400, 400)"></circle><circle r="296.85714285714283" cx="754.7428571428571" cy="727.3142857142857" stroke-width="12.271428571428572" stroke="#5e6868" fill="none" opacity="0.17971428571428572" transform="rotate(82.85714285714286, 400, 400)"></circle><circle r="288" cx="747.2" cy="715.2" stroke-width="12.4" stroke="#646d6c" fill="none" opacity="0.20800000000000002" transform="rotate(80, 400, 400)"></circle><circle r="279.1428571428571" cx="739.6571428571428" cy="703.0857142857143" stroke-width="12.528571428571428" stroke="#697270" fill="none" opacity="0.2362857142857143" transform="rotate(77.14285714285714, 400, 400)"></circle><circle r="270.2857142857143" cx="732.1142857142858" cy="690.9714285714285" stroke-width="12.657142857142857" stroke="#6e7775" fill="none" opacity="0.26457142857142857" transform="rotate(74.28571428571428, 400, 400)"></circle><circle r="261.42857142857144" cx="724.5714285714286" cy="678.8571428571429" stroke-width="12.785714285714285" stroke="#737c79" fill="none" opacity="0.29285714285714287" transform="rotate(71.42857142857143, 400, 400)"></circle><circle r="252.57142857142856" cx="717.0285714285715" cy="666.7428571428571" stroke-width="12.914285714285715" stroke="#78807d" fill="none" opacity="0.3211428571428572" transform="rotate(68.57142857142857, 400, 400)"></circle><circle r="243.71428571428572" cx="709.4857142857143" cy="654.6285714285714" stroke-width="13.042857142857143" stroke="#7c8581" fill="none" opacity="0.3494285714285714" transform="rotate(65.71428571428572, 400, 400)"></circle><circle r="234.85714285714283" cx="701.9428571428572" cy="642.5142857142857" stroke-width="13.17142857142857" stroke="#818984" fill="none" opacity="0.3777142857142857" transform="rotate(62.857142857142854, 400, 400)"></circle><circle r="226" cx="694.4" cy="630.4" stroke-width="13.3" stroke="#858d88" fill="none" opacity="0.406" transform="rotate(60, 400, 400)"></circle><circle r="217.14285714285714" cx="686.8571428571429" cy="618.2857142857142" stroke-width="13.428571428571429" stroke="#89918b" fill="none" opacity="0.4342857142857143" transform="rotate(57.14285714285714, 400, 400)"></circle><circle r="208.28571428571428" cx="679.3142857142857" cy="606.1714285714286" stroke-width="13.557142857142857" stroke="#8d958f" fill="none" opacity="0.4625714285714286" transform="rotate(54.285714285714285, 400, 400)"></circle><circle r="199.42857142857142" cx="671.7714285714286" cy="594.0571428571429" stroke-width="13.685714285714285" stroke="#919992" fill="none" opacity="0.4908571428571429" transform="rotate(51.42857142857143, 400, 400)"></circle><circle r="190.57142857142856" cx="664.2285714285714" cy="581.9428571428572" stroke-width="13.814285714285713" stroke="#959d95" fill="none" opacity="0.5191428571428571" transform="rotate(48.57142857142857, 400, 400)"></circle><circle r="181.7142857142857" cx="656.6857142857143" cy="569.8285714285714" stroke-width="13.942857142857143" stroke="#98a099" fill="none" opacity="0.5474285714285715" transform="rotate(45.714285714285715, 400, 400)"></circle><circle r="172.85714285714283" cx="649.1428571428571" cy="557.7142857142858" stroke-width="14.071428571428571" stroke="#9ca49c" fill="none" opacity="0.5757142857142857" transform="rotate(42.857142857142854, 400, 400)"></circle><circle r="164" cx="641.6" cy="545.6" stroke-width="14.2" stroke="#9fa79f" fill="none" opacity="0.604" transform="rotate(40, 400, 400)"></circle><circle r="155.14285714285714" cx="634.0571428571428" cy="533.4857142857143" stroke-width="14.32857142857143" stroke="#a3aba2" fill="none" opacity="0.6322857142857143" transform="rotate(37.14285714285714, 400, 400)"></circle><circle r="146.28571428571428" cx="626.5142857142857" cy="521.3714285714286" stroke-width="14.457142857142857" stroke="#a6aea5" fill="none" opacity="0.6605714285714286" transform="rotate(34.28571428571428, 400, 400)"></circle><circle r="137.42857142857142" cx="618.9714285714285" cy="509.25714285714287" stroke-width="14.585714285714285" stroke="#a9b1a8" fill="none" opacity="0.6888571428571428" transform="rotate(31.42857142857143, 400, 400)"></circle><circle r="128.57142857142856" cx="611.4285714285714" cy="497.14285714285717" stroke-width="14.714285714285714" stroke="#adb5ab" fill="none" opacity="0.7171428571428572" transform="rotate(28.57142857142857, 400, 400)"></circle><circle r="119.7142857142857" cx="603.8857142857144" cy="485.02857142857147" stroke-width="14.842857142857142" stroke="#b0b8ad" fill="none" opacity="0.7454285714285714" transform="rotate(25.714285714285708, 400, 400)"></circle><circle r="110.85714285714283" cx="596.3428571428572" cy="472.9142857142857" stroke-width="14.971428571428572" stroke="#b3bbb0" fill="none" opacity="0.7737142857142857" transform="rotate(22.85714285714286, 400, 400)"></circle><circle r="102" cx="588.8" cy="460.8" stroke-width="15.1" stroke="#b6beb3" fill="none" opacity="0.802" transform="rotate(20, 400, 400)"></circle><circle r="93.14285714285711" cx="581.2571428571429" cy="448.6857142857143" stroke-width="15.228571428571428" stroke="#b9c1b6" fill="none" opacity="0.8302857142857143" transform="rotate(17.14285714285714, 400, 400)"></circle><circle r="84.28571428571428" cx="573.7142857142858" cy="436.57142857142856" stroke-width="15.357142857142858" stroke="#bcc4b8" fill="none" opacity="0.8585714285714285" transform="rotate(14.285714285714278, 400, 400)"></circle><circle r="75.42857142857139" cx="566.1714285714286" cy="424.45714285714286" stroke-width="15.485714285714286" stroke="#bfc7bb" fill="none" opacity="0.8868571428571429" transform="rotate(11.42857142857143, 400, 400)"></circle><circle r="66.57142857142856" cx="558.6285714285714" cy="412.34285714285716" stroke-width="15.614285714285714" stroke="#c2cabd" fill="none" opacity="0.9151428571428571" transform="rotate(8.57142857142857, 400, 400)"></circle><circle r="57.71428571428572" cx="551.0857142857143" cy="400.22857142857146" stroke-width="15.742857142857142" stroke="#c4ccc0" fill="none" opacity="0.9434285714285714" transform="rotate(5.714285714285708, 400, 400)"></circle><circle r="48.85714285714283" cx="543.5428571428572" cy="388.11428571428576" stroke-width="15.87142857142857" stroke="#c7cfc3" fill="none" opacity="0.9717142857142858" transform="rotate(2.857142857142861, 400, 400)"></circle><circle r="40" cx="536" cy="376" stroke-width="16" stroke="#cad2c5" fill="none" opacity="1" transform="rotate(0, 400, 400)"></circle></g></svg>